<?xml version="1.0" standalone="no"?>
<svg xmlns:xlink="http://www.w3.org/1999/xlink" id="wave" style="transform:rotate(180deg); transition: 0.3s" viewBox="0 0 1440 170" version="1.1" xmlns="http://www.w3.org/2000/svg"><defs><linearGradient id="sw-gradient-0" x1="0" x2="0" y1="1" y2="0"><stop stop-color="rgba(255, 249, 234, 1)" offset="0%"/><stop stop-color="rgba(233, 162, 9, 1)" offset="100%"/></linearGradient></defs><path style="transform:translate(0, 0px); opacity:1" fill="url(#sw-gradient-0)" d="M0,0L34.3,14.2C68.6,28,137,57,206,62.3C274.3,68,343,51,411,42.5C480,34,549,34,617,53.8C685.7,74,754,113,823,107.7C891.4,102,960,51,1029,45.3C1097.1,40,1166,79,1234,90.7C1302.9,102,1371,85,1440,90.7C1508.6,96,1577,125,1646,119C1714.3,113,1783,74,1851,65.2C1920,57,1989,79,2057,85C2125.7,91,2194,79,2263,70.8C2331.4,62,2400,57,2469,59.5C2537.1,62,2606,74,2674,76.5C2742.9,79,2811,74,2880,76.5C2948.6,79,3017,91,3086,102C3154.3,113,3223,125,3291,127.5C3360,130,3429,125,3497,104.8C3565.7,85,3634,51,3703,45.3C3771.4,40,3840,62,3909,73.7C3977.1,85,4046,85,4114,73.7C4182.9,62,4251,40,4320,36.8C4388.6,34,4457,51,4526,56.7C4594.3,62,4663,57,4731,70.8C4800,85,4869,119,4903,136L4937.1,153L4937.1,170L4902.9,170C4868.6,170,4800,170,4731,170C4662.9,170,4594,170,4526,170C4457.1,170,4389,170,4320,170C4251.4,170,4183,170,4114,170C4045.7,170,3977,170,3909,170C3840,170,3771,170,3703,170C3634.3,170,3566,170,3497,170C3428.6,170,3360,170,3291,170C3222.9,170,3154,170,3086,170C3017.1,170,2949,170,2880,170C2811.4,170,2743,170,2674,170C2605.7,170,2537,170,2469,170C2400,170,2331,170,2263,170C2194.3,170,2126,170,2057,170C1988.6,170,1920,170,1851,170C1782.9,170,1714,170,1646,170C1577.1,170,1509,170,1440,170C1371.4,170,1303,170,1234,170C1165.7,170,1097,170,1029,170C960,170,891,170,823,170C754.3,170,686,170,617,170C548.6,170,480,170,411,170C342.9,170,274,170,206,170C137.1,170,69,170,34,170L0,170Z"/></svg>